Coordinates
version=1
nRows=29
nColumns=24
inDegrees=yes

Units are S.I. units (second, meters, Newtons, ...)
Angles are in degrees.

endheader
time	torso_tilt	torso_list	torso_rotation	torso_tx	torso_ty	torso_tz	lumbar_extension	lumbar_bending	lumbar_rotation	hip_flexion_r	hip_adduction_r	hip_rotation_r	knee_angle_r	ankle_angle_r	subtalar_angle_r	mtp_angle_r	hip_flexion_l	hip_adduction_l	hip_rotation_l	knee_angle_l	ankle_angle_l	subtalar_angle_l	mtp_angle_l
     15.24000000	     -9.76043625	      1.54294564	     -5.80272807	     -0.05868591	      1.25426915	     -0.00286304	     11.85988917	      0.66919035	      7.70664506	     15.49755289	     -4.73585551	    -11.15933324	    -66.18696075	      1.74838231	     -3.40130883	      0.00000000	     -0.46959948	      5.09280847	      1.22201901	     -7.63902993	      7.21549931	      0.53983159	      0.00000000
     15.25000000	     -9.83038985	      1.57501527	     -5.91421680	     -0.05981715	      1.25487029	     -0.00301190	     11.80046695	      0.43434817	      7.99700606	     16.73499833	     -4.47740843	    -11.45724699	    -64.92767664	      2.50464533	     -3.40431488	      0.00000000	     -1.12948910	      4.81939833	      1.26155565	     -7.17773318	      7.50306163	      0.87253562	      0.00000000
     15.26000000	     -9.91262275	      1.60626675	     -6.02297331	     -0.06093397	      1.25523377	     -0.00307106	     11.79624742	      0.25041340	      8.27589586	     17.84644008	     -4.24003812	    -11.71067018	    -63.37622809	      3.21705722	     -3.65012097	      0.00000000	     -1.79005659	      4.58952428	      1.32362642	     -6.79987962	      7.80173715	      1.16127096	      0.00000000
     15.27000000	    -10.00952321	      1.61401123	     -6.14580559	     -0.06202104	      1.25544882	     -0.00305302	     11.79108909	      0.11733812	      8.55190504	     18.87349480	     -3.96063006	    -11.85925794	    -61.54042266	      3.76558428	     -3.81364423	      0.00000000	     -2.33711921	      4.37521689	      1.40822005	     -6.59845307	      8.14969006	      1.46845012	      0.00000000
     15.28000000	    -10.09705735	      1.61664697	     -6.24194016	     -0.06303522	      1.25573700	     -0.00301472	     11.74325227	     -0.00976102	      8.77168558	     19.89748083	     -3.70766222	    -11.96460841	    -59.49469374	      4.06802340	     -3.95363281	      0.00000000	     -2.86298158	      4.17546054	      1.49334085	     -6.40557540	      8.48005154	      1.71266051	      0.00000000
     15.29000000	    -10.25735936	      1.59759758	     -6.33476154	     -0.06416645	      1.25562110	     -0.00290537	     11.77342811	     -0.05572215	      9.11858718	     20.83669206	     -3.51743912	    -12.11491447	    -57.22329945	      4.37116395	     -4.07194963	      0.00000000	     -3.33267597	      4.03691320	      1.89772707	     -6.29470113	      8.82878427	      1.70585459	      0.00000000
     15.30000000	    -10.34389505	      1.58997189	     -6.40466236	     -0.06504748	      1.25531169	     -0.00277970	     11.65798689	     -0.04102733	      9.13223128	     21.79079582	     -3.29967185	    -11.85098100	    -54.83703352	      4.64325848	     -4.03653499	      0.00000000	     -3.85802750	      4.03209895	      2.03089816	     -6.03138213	      9.15679956	      1.50981394	      0.00000000
     15.31000000	    -10.44378251	      1.57325926	     -6.48342467	     -0.06592311	      1.25503240	     -0.00258439	     11.61691971	     -0.02070732	      9.18981747	     22.51384151	     -3.03816653	    -11.50776819	    -52.10750226	      4.93444546	     -3.83301566	      0.00000000	     -4.45617326	      3.98678845	      2.25056545	     -5.75226380	      9.52911993	      1.24304033	      0.00000000
     15.32000000	    -10.55208024	      1.54628190	     -6.55032646	     -0.06677108	      1.25461130	     -0.00235764	     11.52975302	      0.03398241	      9.28272533	     23.21810089	     -2.82782647	    -11.28687770	    -49.08362516	      4.85537867	     -3.86800872	      0.00000000	     -4.96806857	      3.99114610	      2.61456697	     -5.55714976	      9.83160535	      0.99489608	      0.00000000
     15.33000000	    -10.66735354	      1.50312260	     -6.60988828	     -0.06756507	      1.25395548	     -0.00204486	     11.42163126	      0.16295766	      9.36430771	     23.84417357	     -2.66624933	    -10.89512864	    -45.98073950	      5.04062448	     -3.46619664	      0.00000000	     -5.42999304	      4.05166546	      2.96882543	     -5.40118813	      9.93091049	      0.89462299	      0.00000000
     15.34000000	    -10.79475547	      1.43961417	     -6.63811774	     -0.06834141	      1.25315504	     -0.00162974	     11.30608915	      0.32005957	      9.45431942	     24.36920836	     -2.51237392	    -10.50665862	    -42.66532633	      5.17806160	     -3.08555434	      0.00000000	     -5.82817521	      4.10897579	      3.37170706	     -5.32263967	     10.22085456	      0.68747919	      0.00000000
     15.35000000	    -10.87420236	      1.38769410	     -6.65935442	     -0.06901775	      1.25246843	     -0.00118566	     11.14876689	      0.46487161	      9.45259196	     24.74050301	     -2.32138280	     -9.98621896	    -39.08324467	      5.21906292	     -2.63236969	      0.00000000	     -6.33942591	      4.19595040	      3.69367302	     -5.08530079	     10.59967460	      0.41026079	      0.00000000
     15.36000000	    -10.95567844	      1.32523201	     -6.66789144	     -0.06958818	      1.25153818	     -0.00067505	     10.94739426	      0.64121250	      9.38528227	     25.06201489	     -2.13484152	     -9.34813036	    -35.35740242	      5.27731320	     -2.09178621	      0.00000000	     -6.78511778	      4.29161770	      3.89849287	     -4.87773780	     10.82484722	      0.16130462	      0.00000000
     15.37000000	    -11.03796719	      1.25381451	     -6.67732459	     -0.07011270	      1.25039657	     -0.00007698	     10.73485984	      0.86931130	      9.31027176	     25.26004965	     -2.00107208	     -8.53703551	    -31.46231841	      5.37184363	     -1.39864260	      0.00000000	     -7.20824954	      4.45094472	      4.08697171	     -4.76139633	     11.18964673	     -0.03350217	      0.00000000
     15.38000000	    -11.11026803	      1.17018670	     -6.66728834	     -0.07058054	      1.24934978	      0.00058772	     10.48878089	      1.11883625	      9.24190862	     25.34741511	     -1.91506438	     -7.71650729	    -27.41208178	      5.32954540	     -0.76804695	      0.00000000	     -7.59190645	      4.60751584	      4.25367420	     -4.64687484	     11.41424851	     -0.24742335	      0.00000000
     15.39000000	    -11.16086973	      1.09273255	     -6.66674643	     -0.07098830	      1.24818982	      0.00129305	     10.17455049	      1.36955210	      9.19267538	     25.41111041	     -1.86655632	     -7.00365969	    -23.38327919	      5.21873973	     -0.57393469	      0.00000000	     -7.93810700	      4.77823559	      4.52520807	     -4.52645349	     11.60836865	     -0.43474765	      0.00000000
     15.40000000	    -11.21082034	      1.01046112	     -6.64571299	     -0.07135517	      1.24686155	      0.00208401	      9.82885566	      1.68041522	      9.14515889	     25.45607707	     -1.93730076	     -6.27544091	    -19.45837332	      5.19807499	     -0.31888957	      0.00000000	     -8.19202703	      5.02280033	      4.80956167	     -4.62409602	     11.90408705	     -0.52316945	      0.00000000
     15.41000000	    -11.24376769	      0.92113724	     -6.59162810	     -0.07165780	      1.24544503	      0.00291778	      9.49883541	      1.98115074	      9.06765873	     25.40980562	     -2.01481177	     -5.57978459	    -15.70446334	      5.26469399	     -0.37279699	      0.00000000	     -8.46533601	      5.24146226	      4.94699130	     -4.65536094	     12.14762789	     -0.83921359	      0.00000000
     15.42000000	    -11.24543664	      0.83871489	     -6.57780854	     -0.07191456	      1.24414957	      0.00384812	      9.10371638	      2.29557837	      9.10673295	     25.38676634	     -2.18615366	     -5.01929428	    -12.25216336	      5.41498057	     -0.47275084	      0.00000000	     -8.65143404	      5.46736059	      5.21637726	     -4.82974662	     12.41985999	     -0.98711823	      0.00000000
     15.43000000	    -11.23958584	      0.75566338	     -6.49282698	     -0.07209402	      1.24263904	      0.00481828	      8.78246022	      2.60418621	      9.04243901	     25.29705892	     -2.34274387	     -4.46188890	     -9.21812544	      5.62955475	     -1.21934512	      0.00000000	     -8.92435807	      5.68893413	      5.37065670	     -5.02687675	     12.66361746	     -0.99312596	      0.00000000
     15.44000000	    -11.22279299	      0.67722395	     -6.46062595	     -0.07220410	      1.24104703	      0.00585103	      8.52521301	      2.87973757	      9.10508998	     25.04527255	     -2.48660635	     -4.04610843	     -6.47964006	      5.60153176	     -1.99552905	      0.00000000	     -9.19743430	      5.84516621	      5.53706930	     -5.39113519	     12.94222452	     -0.96218280	      0.00000000
     15.45000000	    -11.16036070	      0.62021965	     -6.42279537	     -0.07225780	      1.23966217	      0.00689459	      8.24831788	      3.07877875	      9.21739986	     24.80465306	     -2.60151682	     -3.95564337	     -4.29286714	      5.74805038	     -2.05373406	      0.00000000	     -9.43847189	      5.94365684	      5.66322715	     -5.87631564	     13.25354241	     -0.92910695	      0.00000000
     15.46000000	    -11.09986454	      0.57213893	     -6.34005284	     -0.07221749	      1.23820117	      0.00797501	      8.11686809	      3.27437092	      9.28929252	     24.48215388	     -2.69247490	     -4.28344226	     -2.75820699	      5.68771625	     -1.29337980	      0.00000000	     -9.81040041	      6.01751085	      5.65728302	     -6.45187486	     13.43586824	     -0.64193300	      0.00000000
     15.47000000	    -10.98571895	      0.57816914	     -6.27909999	     -0.07198938	      1.23673245	      0.00900789	      7.98906003	      3.31655901	      9.32746776	     24.18431363	     -2.69553078	     -4.66789202	     -1.98124847	      6.08013880	     -0.82897560	      0.00000000	    -10.25532195	      6.00656729	      5.53848729	     -7.05524772	     13.49888508	     -0.43270238	      0.00000000
     15.48000000	    -10.88596501	      0.54461917	     -6.25398715	     -0.07179299	      1.23536199	      0.01023799	      7.89291285	      3.43116204	      9.50688682	     23.94032905	     -2.78052241	     -5.02098520	     -1.95863967	      6.49756548	     -0.57393860	      0.00000000	    -10.58655766	      5.95658538	      5.48021101	     -7.88149691	     13.61531891	     -0.06090596	      0.00000000
     15.49000000	    -10.75121747	      0.51293460	     -6.23945971	     -0.07148017	      1.23435705	      0.01153048	      7.78291603	      3.40203659	      9.70971301	     23.72784394	     -2.73557708	     -5.19963427	     -2.62623614	      6.06767247	     -1.10118750	      0.00000000	    -10.86880476	      5.71865749	      5.31333183	     -8.81635556	     13.71881290	      0.46426388	      0.00000000
     15.50000000	    -10.56660566	      0.50911279	     -6.21716607	     -0.07102522	      1.23333333	      0.01284001	      7.67261984	      3.29444308	      9.76428456	     23.48083635	     -2.56349947	     -5.36017581	     -3.56695670	      5.34145317	     -1.62998002	      0.00000000	    -11.20501351	      5.45077513	      5.05223238	     -9.76009831	     13.68111452	      0.90759468	      0.00000000
     15.51000000	    -10.37621770	      0.51429471	     -6.22969114	     -0.07049108	      1.23235589	      0.01419668	      7.58233495	      3.11868822	      9.87003790	     23.15563530	     -2.30758996	     -5.56265556	     -4.33610542	      4.76486859	     -2.59957799	      0.00000000	    -11.48841040	      5.11307392	      4.80696811	    -10.81749402	     13.60766230	      1.26320671	      0.00000000
     15.52000000	    -10.18353501	      0.52493518	     -6.22249983	     -0.06999592	      1.23180075	      0.01561428	      7.46426076	      2.82930113	     10.02982112	     22.81089171	     -1.95165748	     -5.81867287	     -4.97170303	      3.86328338	     -4.03542305	      0.00000000	    -11.57571749	      4.64554913	      4.62684888	    -12.09877577	     13.40819587	      1.62024367	      0.00000000
